<?xml version="1.0" encoding="UTF-8"?>
<svg width="356px" height="78px" viewBox="0 0 356 78" version="1.1" xmlns="http://www.w3.org/2000/svg" xmlns:xlink="http://www.w3.org/1999/xlink">
    <!-- Generator: Sketch 52.6 (67491) - http://www.bohemiancoding.com/sketch -->
    <title>Arb LCC,</title>
    <desc>Created with Sketch.</desc>
    <g id="Page-1" stroke="none" stroke-width="1" fill="none" fill-rule="evenodd">
        <g id="Artboard" transform="translate(-104.000000, -42.000000)" fill="#000000">
            <path d="M122.90625,112.066406 L104.066406,112.066406 L104.066406,109.578125 C105.962249,109.578125 107.739575,108.748706 109.398438,107.089844 C110.583339,105.904942 112.123688,102.587267 114.019531,97.1367188 L129.660156,43.1054688 L133.570312,43.1054688 L151.34375,101.757812 C153.002612,106.7344 155.846334,109.222656 159.875,109.222656 L159.875,112.066406 L135.347656,112.066406 L135.347656,109.222656 L136.414062,109.222656 C139.968768,109.222656 141.746094,107.919284 141.746094,105.3125 C141.746094,103.416657 141.390629,101.402354 140.679688,99.2695312 L137.835938,90.7382812 L118.996094,90.7382812 L116.863281,97.4921875 C115.91536,100.572932 115.441406,102.824212 115.441406,104.246094 C115.441406,105.667976 115.796871,106.734371 116.507812,107.445312 C117.692714,108.630214 119.825505,109.341145 122.90625,109.578125 L122.90625,112.066406 Z M136.769531,87.1835938 L128.238281,57.3242188 L120.0625,87.1835938 L136.769531,87.1835938 Z M183.947467,112.066406 L162.263873,112.066406 L162.263873,109.578125 C164.633676,109.578125 166.292514,109.104171 167.240435,108.15625 C168.188357,107.208329 168.66231,105.786468 168.66231,103.890625 L168.66231,74.7421875 C168.66231,70.9505019 166.529519,69.0546875 162.263873,69.0546875 L162.263873,66.921875 C167.24046,66.921875 172.216973,66.2109446 177.19356,64.7890625 L177.19356,75.453125 C179.563364,71.1874787 182.05162,68.3437571 184.658404,66.921875 C187.265188,65.4999929 189.634956,65.3815045 191.767779,66.5664062 C193.900602,67.751308 194.966998,69.8840992 194.966998,72.9648438 C194.966998,75.0976669 194.374556,76.7565045 193.189654,77.9414062 C192.241733,78.8893277 191.056849,79.3632812 189.634967,79.3632812 C188.213085,79.3632812 187.028201,78.8893277 186.080279,77.9414062 C184.184436,76.0455634 183.710483,73.6757955 184.658404,70.8320312 C182.525581,72.2539134 180.629767,74.3867045 178.970904,77.2304688 C177.786002,80.074233 177.19356,83.0364429 177.19356,86.1171875 L177.19356,103.890625 C177.19356,105.786468 177.667514,107.208329 178.615435,108.15625 C179.563357,109.104171 181.340683,109.578125 183.947467,109.578125 L183.947467,112.066406 Z M206.598058,112.777344 L205.176183,113.132812 L205.176183,54.125 C205.176183,51.9921768 204.583741,50.3333393 203.39884,49.1484375 C202.213938,47.9635357 200.436612,47.3710938 198.066808,47.3710938 L198.066808,44.8828125 C201.858494,44.6458321 207.071984,43.697925 213.707433,42.0390625 L213.707433,71.8984375 C215.840257,69.528634 217.854559,67.8697964 219.750402,66.921875 C222.357186,65.4999929 224.963931,65.0260393 227.570715,65.5 C230.177499,65.9739607 232.665755,67.3958215 235.035558,69.765625 C239.538185,74.2682517 241.789465,80.903602 241.789465,89.671875 C241.789465,97.729207 239.775162,103.772115 235.746496,107.800781 C233.376692,110.170585 230.888436,111.710934 228.281652,112.421875 C221.646202,114.317718 215.958759,112.184927 211.219152,106.023438 L206.598058,112.777344 Z M213.707433,97.8476562 C213.944414,102.350283 215.129298,105.430981 217.262121,107.089844 C219.868905,109.222667 222.594138,109.578132 225.437902,108.15625 C227.333745,107.208329 228.874094,104.957049 230.058996,101.402344 C231.006917,98.5585795 231.480871,94.2929972 231.480871,88.6054688 C231.480871,83.1549207 231.006917,79.0078267 230.058996,76.1640625 C228.637114,71.8984162 226.030369,69.765625 222.238683,69.765625 C221.053782,69.765625 219.987386,70.0026018 219.039465,70.4765625 C215.484759,72.3724053 213.707433,76.8749645 213.707433,83.984375 L213.707433,97.8476562 Z M327.258617,85.7617188 L326.192211,112.066406 L278.559398,112.066406 L278.559398,109.222656 L279.981273,109.222656 C281.877116,109.222656 283.417465,108.630214 284.602367,107.445312 C285.550288,106.497391 286.024242,104.3646 286.024242,101.046875 L286.024242,55.546875 C286.024242,52.4661304 285.4318,50.3333393 284.246898,49.1484375 C283.061996,47.9635357 281.166182,47.3710938 278.559398,47.3710938 L278.559398,44.8828125 L304.508617,44.8828125 L304.508617,47.3710938 C300.953912,47.3710938 298.584144,47.9635357 297.399242,49.1484375 C296.45132,50.0963589 295.977367,52.1106617 295.977367,55.1914062 L295.977367,101.757812 C295.977367,104.127616 296.569809,105.904942 297.754711,107.089844 C298.939612,108.274746 301.546357,108.867188 305.575023,108.867188 C310.31463,108.867188 313.987771,107.563815 316.594554,104.957031 C319.675299,101.876287 322.282044,95.4779132 324.414867,85.7617188 L327.258617,85.7617188 Z M381.901396,90.0273438 C379.768573,97.1367543 377.398805,102.350244 374.792021,105.667969 C372.185237,108.985694 368.749074,111.236973 364.483427,112.421875 C358.558919,113.843757 353.226941,113.132827 348.487334,110.289062 C344.932628,108.156239 341.970418,105.194029 339.600615,101.402344 C336.756851,96.8997171 334.979525,91.9232043 334.268584,86.4726562 C332.372741,71.3059138 335.453439,59.6940507 343.510771,51.6367188 C348.487359,46.6601314 354.29329,44.171875 360.92874,44.171875 C365.194386,44.171875 369.459969,45.949201 373.725615,49.5039062 L377.280302,45.2382812 L379.057646,45.2382812 L380.479521,68.6992188 L378.346709,69.0546875 C377.872748,67.395825 377.280306,65.5000107 376.569365,63.3671875 C374.910502,58.1536198 372.659223,54.1250142 369.815459,51.28125 C367.208675,48.6744661 364.246465,47.3710938 360.92874,47.3710938 C357.847995,47.3710938 354.885785,48.7929545 352.042021,51.6367188 C347.302414,56.3763258 345.051135,65.7369093 345.288115,79.71875 C345.525095,91.5677676 347.539398,99.3880019 351.331084,103.179688 C353.937867,105.786471 356.544612,107.445309 359.151396,108.15625 C361.99516,108.867191 364.838882,108.511726 367.682646,107.089844 C372.422253,104.72004 376.450859,98.6771319 379.768584,88.9609375 L381.901396,90.0273438 Z M436.899644,90.0273438 C434.766821,97.1367543 432.397053,102.350244 429.790269,105.667969 C427.183485,108.985694 423.747322,111.236973 419.481675,112.421875 C413.557167,113.843757 408.225189,113.132827 403.485582,110.289062 C399.930876,108.156239 396.968666,105.194029 394.598863,101.402344 C391.755099,96.8997171 389.977773,91.9232043 389.266832,86.4726562 C387.370989,71.3059138 390.451687,59.6940507 398.509019,51.6367188 C403.485606,46.6601314 409.291538,44.171875 415.926988,44.171875 C420.192634,44.171875 424.458217,45.949201 428.723863,49.5039062 L432.27855,45.2382812 L434.055894,45.2382812 L435.477769,68.6992188 L433.344957,69.0546875 C432.870996,67.395825 432.278554,65.5000107 431.567613,63.3671875 C429.90875,58.1536198 427.657471,54.1250142 424.813707,51.28125 C422.206923,48.6744661 419.244713,47.3710938 415.926988,47.3710938 C412.846243,47.3710938 409.884033,48.7929545 407.040269,51.6367188 C402.300662,56.3763258 400.049382,65.7369093 400.286363,79.71875 C400.523343,91.5677676 402.537646,99.3880019 406.329332,103.179688 C408.936115,105.786471 411.54286,107.445309 414.149644,108.15625 C416.993408,108.867191 419.83713,108.511726 422.680894,107.089844 C427.420501,104.72004 431.449107,98.6771319 434.766832,88.9609375 L436.899644,90.0273438 Z M455.284611,112.066406 C453.151788,114.91017 450.308066,117.398427 446.753361,119.53125 L444.26508,116.6875 C449.478647,113.132795 452.677834,109.222678 453.862736,104.957031 C451.018972,106.852874 448.056762,107.089851 444.976017,105.667969 C442.132253,104.009106 440.710392,101.52085 440.710392,98.203125 C440.947372,93.9374787 443.080164,91.2122455 447.10883,90.0273438 C449.241653,89.553383 451.374444,89.6718714 453.507267,90.3828125 C455.877071,91.3307339 457.535908,92.9895715 458.48383,95.359375 C460.616653,100.809923 459.550257,106.378878 455.284611,112.066406 Z" id="Arb-LCC,"></path>
        </g>
    </g>
</svg>